<svg xmlns="http://www.w3.org/2000/svg" viewBox="0 0 600 400"><rect x="40" y="130" width="170" height="150" rx="24" fill="none" stroke="currentColor" stroke-width="2" stroke-linecap="round" stroke-linejoin="round"/><rect x="93" y="183" width="64" height="18" rx="4" fill="none" stroke="currentColor" stroke-width="2"/><circle cx="145" cy="192" r="2.6" fill="currentColor"/><rect x="93" y="209" width="64" height="18" rx="4" fill="none" stroke="currentColor" stroke-width="2"/><circle cx="145" cy="218" r="2.6" fill="currentColor"/><rect x="430" y="155" width="120" height="100" rx="20" fill="none" stroke="currentColor" stroke-width="2" stroke-linecap="round" stroke-linejoin="round"/><rect x="458" y="183" width="64" height="18" rx="4" fill="none" stroke="currentColor" stroke-width="2"/><circle cx="510" cy="192" r="2.6" fill="currentColor"/><rect x="458" y="209" width="64" height="18" rx="4" fill="none" stroke="currentColor" stroke-width="2"/><circle cx="510" cy="218" r="2.6" fill="currentColor"/><path d="M222 205H418" fill="none" stroke="currentColor" stroke-width="2" stroke-linecap="round" stroke-dasharray="7 9"/><rect x="306" y="191" width="28" height="28" rx="5" fill="#ba4823"/><path d="M337.2 104.2A18 18 0 1 0 356.5 129.1A16 16 0 0 1 337.2 104.2Z" fill="currentColor"/></svg>
